<svg width="955" height="48" viewBox="0 0 955 48" fill="none" xmlns="http://www.w3.org/2000/svg">
<line y1="23.5" x2="907" y2="23.5" stroke="#D4D4DC"/>
<circle cx="64" cy="24" r="24" fill="#12141D"/>
<path d="M67.8352 9.90909V39H63.4318V14.3125H63.2614L56.3011 18.858V14.6534L63.5597 9.90909H67.8352Z" fill="white"/>
<circle cx="498" cy="24" r="24" fill="#12141D"/>
<path d="M488.033 39V35.8182L497.876 25.6193C498.928 24.5114 499.794 23.5407 500.476 22.7074C501.167 21.8646 501.683 21.0644 502.024 20.3068C502.365 19.5492 502.536 18.7443 502.536 17.892C502.536 16.9261 502.308 16.0928 501.854 15.392C501.399 14.6818 500.779 14.1373 499.993 13.7585C499.207 13.3703 498.321 13.1761 497.337 13.1761C496.295 13.1761 495.386 13.3892 494.609 13.8153C493.833 14.2415 493.236 14.8428 492.82 15.6193C492.403 16.3958 492.195 17.3049 492.195 18.3466H488.004C488.004 16.5758 488.411 15.0275 489.226 13.7017C490.04 12.3759 491.158 11.3485 492.578 10.6193C493.999 9.88068 495.613 9.51136 497.422 9.51136C499.25 9.51136 500.859 9.87595 502.251 10.6051C503.653 11.3248 504.747 12.3097 505.533 13.5597C506.319 14.8002 506.712 16.2017 506.712 17.7642C506.712 18.8438 506.508 19.8996 506.101 20.9318C505.703 21.964 505.007 23.1146 504.013 24.3835C503.018 25.643 501.636 27.1723 499.865 28.9716L494.084 35.0227V35.2358H507.18V39H488.033Z" fill="white"/>
<circle cx="931" cy="24" r="24" fill="#12141D"/>
<path d="M930.926 39.3977C928.975 39.3977 927.233 39.0616 925.699 38.3892C924.174 37.7169 922.967 36.7841 922.077 35.5909C921.196 34.3883 920.723 32.9962 920.656 31.4148H925.116C925.173 32.2765 925.462 33.0246 925.983 33.6591C926.513 34.2841 927.205 34.767 928.057 35.108C928.909 35.4489 929.856 35.6193 930.898 35.6193C932.044 35.6193 933.057 35.4205 933.938 35.0227C934.828 34.625 935.524 34.071 936.026 33.3608C936.527 32.6411 936.778 31.8125 936.778 30.875C936.778 29.8996 936.527 29.0426 936.026 28.304C935.533 27.5559 934.809 26.9687 933.852 26.5426C932.905 26.1165 931.759 25.9034 930.415 25.9034H927.957V22.3239H930.415C931.494 22.3239 932.441 22.1297 933.256 21.7415C934.08 21.3532 934.723 20.8134 935.188 20.1222C935.652 19.4214 935.884 18.6023 935.884 17.6648C935.884 16.7652 935.68 15.9839 935.273 15.321C934.875 14.6487 934.307 14.1231 933.568 13.7443C932.839 13.3655 931.977 13.1761 930.983 13.1761C930.036 13.1761 929.151 13.3513 928.327 13.7017C927.512 14.0426 926.849 14.535 926.338 15.179C925.827 15.8134 925.552 16.5758 925.514 17.4659H921.267C921.314 15.8939 921.778 14.5114 922.659 13.3182C923.549 12.125 924.723 11.1922 926.182 10.5199C927.64 9.84754 929.259 9.51136 931.04 9.51136C932.905 9.51136 934.515 9.87595 935.869 10.6051C937.233 11.3248 938.284 12.286 939.023 13.4886C939.771 14.6913 940.14 16.0076 940.131 17.4375C940.14 19.0663 939.686 20.4489 938.767 21.5852C937.858 22.7216 936.646 23.4839 935.131 23.8722V24.0994C937.063 24.393 938.559 25.16 939.619 26.4006C940.689 27.6411 941.22 29.1799 941.21 31.017C941.22 32.6174 940.775 34.0521 939.875 35.321C938.985 36.59 937.768 37.589 936.224 38.3182C934.681 39.0379 932.915 39.3977 930.926 39.3977Z" fill="white"/>
</svg>
